{"title":"Iron.Man.3.2013.480p.BRRip.XviD.AC3-GRG &amp; mucker","uid":8835649,"size":2093806697,"categoryP":"video","categoryS":"movies","magnet":"?xt=urn:btih:a992f26c535b12c53502d0f44a205fecab4cb3ea&amp;dn=Iron.Man.3.2013.480p.BRRip.XviD.AC3-GRG+%26amp%3B+mucker&amp;tr=udp%3A%2F%2Ftracker.openbittorrent.com%3A80&amp;tr=udp%3A%2F%2Fopen.demonii.com%3A1337&amp;tr=udp%3A%2F%2Ftracker.coppersurfer.tk%3A6969&amp;tr=udp%3A%2F%2Fexodus.desync.com%3A6969","seeders":3,"leechers":0,"uploader":"Thhaque","files":7,"time":1377108408,"description":"Iron Man 3\n\nGenre: Action, Adventure, Sci-Fi\nYear: 2013\nCountry: USA, China\nRuntime: 130 min.\nDirector: Shane Black\nCast: Robert Downey Jr., Gwyneth Paltrow, Don Cheadle\n\nGeneral\nComplete name                            : Iron.Man.3.2013.480p.BRRip.XviD.AC3-GRG &amp; mucker.avi\nFormat                                   : AVI\nFormat/Info                              : Audio Video Interleave\nFile size                                : 1.95 GiB\nDuration                                 : 2h 10mn\nOverall bit rate                         : 2 138 Kbps\nWriting application                      : VirtualDubMod 1.5.10.3 | www.virtualdub-fr.org || (build 2550/release)\nWriting library                          : VirtualDubMod build 2550/release\n\nVideo\nID                                       : 0\nFormat                                   : MPEG-4 Visual\nFormat profile                           : Simple@L3\nFormat settings, BVOP                    : No\nFormat settings, QPel                    : No\nFormat settings, GMC                     : No warppoints\nFormat settings, Matrix                  : Default (H.263)\nCodec ID                                 : XVID\nCodec ID/Hint                            : XviD\nDuration                                 : 2h 10mn\nBit rate                                 : 1 680 Kbps\nWidth                                    : 720 pixels\nHeight                                   : 384 pixels\nDisplay aspect ratio                     : 1.875\nFrame rate                               : 24.000 fps\nColor space                              : YUV\nChroma subsampling                       : 4:2:0\nBit depth                                : 8 bits\nScan type                                : Progressive\nCompression mode                         : Lossy\nBits/(Pixel*Frame)                       : 0.253\nStream size                              : 1.53 GiB (79%)\nWriting library                          : XviD 1.2.1 (UTC 2008-12-04)\n\nAudio\nID                                       : 1\nFormat                                   : AC-3\nFormat/Info                              : Audio Coding 3\nMode extension                           : CM (complete main)\nCodec ID                                 : 2000\nDuration                                 : 2h 10mn\nBit rate mode                            : Constant\nBit rate                                 : 448 Kbps\nChannel(s)                               : 6 channels\nChannel positions                        : Front: L C R, Side: L R, LFE\nSampling rate                            : 48.0 KHz\nBit depth                                : 16 bits\nCompression mode                         : Lossy\nStream size                              : 418 MiB (21%)\nAlignment                                : Split accross interleaves\nInterleave, duration                     : 42 ms (1.00 video frame)\nInterleave, preload duration             : 500 ms\n\n\n.: Plot :.\nMarvel's &quot;Iron Man 3&quot; pits brash-but-brilliant industrialist Tony Stark/Iron Man against an enemy whose reach knows no bounds. When Stark finds his personal world destroyed at his enemy's hands, he embarks on a harrowing quest to find those responsible. This journey, at every turn, will test his mettle. With his back against the wall, Stark is left to survive by his own devices, relying on his ingenuity and instincts to protect those closest to him. As he fights his way back, Stark discovers the answer to the question that has secretly haunted him: does the man make the suit or does the suit make the man?","torrent":{"xt":"urn:btih:a992f26c535b12c53502d0f44a205fecab4cb3ea","amp;dn":"Iron.Man.3.2013.480p.BRRip.XviD.AC3-GRG+%26amp%3B+mucker","amp;tr":["udp%3A%2F%2Ftracker.openbittorrent.com%3A80","udp%3A%2F%2Fopen.demonii.com%3A1337","udp%3A%2F%2Ftracker.coppersurfer.tk%3A6969","udp%3A%2F%2Fexodus.desync.com%3A6969"],"infoHash":"a992f26c535b12c53502d0f44a205fecab4cb3ea","infoHashBuffer":{"type":"Buffer","data":[169,146,242,108,83,91,18,197,53,2,208,244,74,32,95,236,171,76,179,234]},"announce":[],"urlList":[]}}